<mxfile host="app.diagrams.net" modified="2022-12-05T15:35:47.931Z" agent="5.0 (Windows NT 10.0; Win64; x64) AppleWebKit/537.36 (KHTML, like Gecko) Chrome/107.0.0.0 Safari/537.36 Edg/107.0.1418.62" etag="yICLUOSyC3bLQWCVWET7" version="20.6.0" type="github">
  <diagram id="qvZupBdwBmpUl9UfghPR" name="Page-1">
    <mxGraphModel dx="1375" dy="794" grid="0" gridSize="10" guides="1" tooltips="1" connect="1" arrows="1" fold="1" page="1" pageScale="1" pageWidth="850" pageHeight="1100" math="0" shadow="0">
      <root>
        <mxCell id="0" />
        <mxCell id="1" parent="0" />
        <object label="" id="x_jHGiyt7hKOIwZNZF2D-29">
          <mxCell style="shape=table;html=1;whiteSpace=wrap;startSize=0;container=1;collapsible=0;childLayout=tableLayout;flipH=0;flipV=0;movable=1;resizable=1;rotatable=1;deletable=1;editable=1;connectable=1;fontFamily=Georgia;swimlaneFillColor=none;fillColor=none;strokeColor=#B3B3B3;" parent="1" vertex="1">
            <mxGeometry x="270" y="300" width="250" height="249.0000000000001" as="geometry" />
          </mxCell>
        </object>
        <mxCell id="x_jHGiyt7hKOIwZNZF2D-30" value="" style="shape=tableRow;horizontal=0;startSize=0;swimlaneHead=0;swimlaneBody=0;top=0;left=0;bottom=0;right=0;collapsible=0;dropTarget=0;fillColor=none;points=[[0,0.5],[1,0.5]];portConstraint=eastwest;movable=1;resizable=1;rotatable=1;deletable=1;editable=1;connectable=1;fontFamily=Georgia;swimlaneFillColor=none;strokeColor=#CCCCCC;" parent="x_jHGiyt7hKOIwZNZF2D-29" vertex="1">
          <mxGeometry width="250" height="35" as="geometry" />
        </mxCell>
        <mxCell id="x_jHGiyt7hKOIwZNZF2D-58" style="shape=partialRectangle;html=1;whiteSpace=wrap;connectable=1;top=0;left=0;bottom=0;right=0;overflow=hidden;movable=1;resizable=1;rotatable=1;deletable=1;editable=1;fontFamily=Georgia;swimlaneFillColor=none;fillColor=#f8cecc;strokeColor=#b85450;" parent="x_jHGiyt7hKOIwZNZF2D-30" vertex="1">
          <mxGeometry width="35" height="35" as="geometry">
            <mxRectangle width="35" height="35" as="alternateBounds" />
          </mxGeometry>
        </mxCell>
        <mxCell id="x_jHGiyt7hKOIwZNZF2D-65" style="shape=partialRectangle;html=1;whiteSpace=wrap;connectable=1;top=0;left=0;bottom=0;right=0;overflow=hidden;movable=1;resizable=1;rotatable=1;deletable=1;editable=1;fontFamily=Georgia;swimlaneFillColor=none;fillColor=#f8cecc;strokeColor=#b85450;" parent="x_jHGiyt7hKOIwZNZF2D-30" vertex="1">
          <mxGeometry x="35" width="37" height="35" as="geometry">
            <mxRectangle width="37" height="35" as="alternateBounds" />
          </mxGeometry>
        </mxCell>
        <mxCell id="x_jHGiyt7hKOIwZNZF2D-72" style="shape=partialRectangle;html=1;whiteSpace=wrap;connectable=1;top=0;left=0;bottom=0;right=0;overflow=hidden;movable=1;resizable=1;rotatable=1;deletable=1;editable=1;fontFamily=Georgia;swimlaneFillColor=none;fillColor=#f8cecc;strokeColor=#b85450;" parent="x_jHGiyt7hKOIwZNZF2D-30" vertex="1">
          <mxGeometry x="72" width="35" height="35" as="geometry">
            <mxRectangle width="35" height="35" as="alternateBounds" />
          </mxGeometry>
        </mxCell>
        <mxCell id="x_jHGiyt7hKOIwZNZF2D-31" value="" style="shape=partialRectangle;html=1;whiteSpace=wrap;connectable=1;top=0;left=0;bottom=0;right=0;overflow=hidden;movable=1;resizable=1;rotatable=1;deletable=1;editable=1;fontFamily=Georgia;swimlaneFillColor=none;" parent="x_jHGiyt7hKOIwZNZF2D-30" vertex="1">
          <mxGeometry x="107" width="35" height="35" as="geometry">
            <mxRectangle width="35" height="35" as="alternateBounds" />
          </mxGeometry>
        </mxCell>
        <mxCell id="x_jHGiyt7hKOIwZNZF2D-32" value="" style="shape=partialRectangle;html=1;whiteSpace=wrap;connectable=1;top=0;left=0;bottom=0;right=0;overflow=hidden;movable=1;resizable=1;rotatable=1;deletable=1;editable=1;fontFamily=Georgia;swimlaneFillColor=none;" parent="x_jHGiyt7hKOIwZNZF2D-30" vertex="1">
          <mxGeometry x="142" width="36" height="35" as="geometry">
            <mxRectangle width="36" height="35" as="alternateBounds" />
          </mxGeometry>
        </mxCell>
        <mxCell id="x_jHGiyt7hKOIwZNZF2D-79" style="shape=partialRectangle;html=1;whiteSpace=wrap;connectable=1;top=0;left=0;bottom=0;right=0;overflow=hidden;movable=1;resizable=1;rotatable=1;deletable=1;editable=1;fontFamily=Georgia;swimlaneFillColor=none;" parent="x_jHGiyt7hKOIwZNZF2D-30" vertex="1">
          <mxGeometry x="178" width="37" height="35" as="geometry">
            <mxRectangle width="37" height="35" as="alternateBounds" />
          </mxGeometry>
        </mxCell>
        <mxCell id="x_jHGiyt7hKOIwZNZF2D-33" value="" style="shape=partialRectangle;html=1;whiteSpace=wrap;connectable=1;top=0;left=0;bottom=0;right=0;overflow=hidden;movable=1;resizable=1;rotatable=1;deletable=1;editable=1;fontFamily=Georgia;swimlaneFillColor=none;" parent="x_jHGiyt7hKOIwZNZF2D-30" vertex="1">
          <mxGeometry x="215" width="35" height="35" as="geometry">
            <mxRectangle width="35" height="35" as="alternateBounds" />
          </mxGeometry>
        </mxCell>
        <mxCell id="x_jHGiyt7hKOIwZNZF2D-54" style="shape=tableRow;horizontal=0;startSize=0;swimlaneHead=0;swimlaneBody=0;top=0;left=0;bottom=0;right=0;collapsible=0;dropTarget=0;fillColor=none;points=[[0,0.5],[1,0.5]];portConstraint=eastwest;movable=1;resizable=1;rotatable=1;deletable=1;editable=1;connectable=1;fontFamily=Georgia;swimlaneFillColor=none;strokeColor=#CCCCCC;" parent="x_jHGiyt7hKOIwZNZF2D-29" vertex="1">
          <mxGeometry y="35" width="250" height="35" as="geometry" />
        </mxCell>
        <mxCell id="x_jHGiyt7hKOIwZNZF2D-59" style="shape=partialRectangle;html=1;whiteSpace=wrap;connectable=1;top=0;left=0;bottom=0;right=0;overflow=hidden;movable=1;resizable=1;rotatable=1;deletable=1;editable=1;fontFamily=Georgia;swimlaneFillColor=none;fillColor=#f8cecc;strokeColor=#b85450;" parent="x_jHGiyt7hKOIwZNZF2D-54" vertex="1">
          <mxGeometry width="35" height="35" as="geometry">
            <mxRectangle width="35" height="35" as="alternateBounds" />
          </mxGeometry>
        </mxCell>
        <mxCell id="x_jHGiyt7hKOIwZNZF2D-66" style="shape=partialRectangle;html=1;whiteSpace=wrap;connectable=1;top=0;left=0;bottom=0;right=0;overflow=hidden;movable=1;resizable=1;rotatable=1;deletable=1;editable=1;fontFamily=Georgia;swimlaneFillColor=none;fillColor=#f8cecc;strokeColor=#b85450;" parent="x_jHGiyt7hKOIwZNZF2D-54" vertex="1">
          <mxGeometry x="35" width="37" height="35" as="geometry">
            <mxRectangle width="37" height="35" as="alternateBounds" />
          </mxGeometry>
        </mxCell>
        <mxCell id="x_jHGiyt7hKOIwZNZF2D-73" style="shape=partialRectangle;html=1;whiteSpace=wrap;connectable=1;top=0;left=0;bottom=0;right=0;overflow=hidden;movable=1;resizable=1;rotatable=1;deletable=1;editable=1;fontFamily=Georgia;swimlaneFillColor=none;fillColor=#f8cecc;strokeColor=#b85450;" parent="x_jHGiyt7hKOIwZNZF2D-54" vertex="1">
          <mxGeometry x="72" width="35" height="35" as="geometry">
            <mxRectangle width="35" height="35" as="alternateBounds" />
          </mxGeometry>
        </mxCell>
        <mxCell id="x_jHGiyt7hKOIwZNZF2D-55" style="shape=partialRectangle;html=1;whiteSpace=wrap;connectable=1;top=0;left=0;bottom=0;right=0;overflow=hidden;movable=1;resizable=1;rotatable=1;deletable=1;editable=1;fontFamily=Georgia;swimlaneFillColor=none;" parent="x_jHGiyt7hKOIwZNZF2D-54" vertex="1">
          <mxGeometry x="107" width="35" height="35" as="geometry">
            <mxRectangle width="35" height="35" as="alternateBounds" />
          </mxGeometry>
        </mxCell>
        <mxCell id="x_jHGiyt7hKOIwZNZF2D-56" style="shape=partialRectangle;html=1;whiteSpace=wrap;connectable=1;top=0;left=0;bottom=0;right=0;overflow=hidden;movable=1;resizable=1;rotatable=1;deletable=1;editable=1;fontFamily=Georgia;swimlaneFillColor=none;" parent="x_jHGiyt7hKOIwZNZF2D-54" vertex="1">
          <mxGeometry x="142" width="36" height="35" as="geometry">
            <mxRectangle width="36" height="35" as="alternateBounds" />
          </mxGeometry>
        </mxCell>
        <mxCell id="x_jHGiyt7hKOIwZNZF2D-80" style="shape=partialRectangle;html=1;whiteSpace=wrap;connectable=1;top=0;left=0;bottom=0;right=0;overflow=hidden;movable=1;resizable=1;rotatable=1;deletable=1;editable=1;fontFamily=Georgia;swimlaneFillColor=none;" parent="x_jHGiyt7hKOIwZNZF2D-54" vertex="1">
          <mxGeometry x="178" width="37" height="35" as="geometry">
            <mxRectangle width="37" height="35" as="alternateBounds" />
          </mxGeometry>
        </mxCell>
        <mxCell id="x_jHGiyt7hKOIwZNZF2D-57" style="shape=partialRectangle;html=1;whiteSpace=wrap;connectable=1;top=0;left=0;bottom=0;right=0;overflow=hidden;movable=1;resizable=1;rotatable=1;deletable=1;editable=1;fontFamily=Georgia;swimlaneFillColor=none;" parent="x_jHGiyt7hKOIwZNZF2D-54" vertex="1">
          <mxGeometry x="215" width="35" height="35" as="geometry">
            <mxRectangle width="35" height="35" as="alternateBounds" />
          </mxGeometry>
        </mxCell>
        <mxCell id="x_jHGiyt7hKOIwZNZF2D-34" value="" style="shape=tableRow;horizontal=0;startSize=0;swimlaneHead=0;swimlaneBody=0;top=0;left=0;bottom=0;right=0;collapsible=0;dropTarget=0;fillColor=none;points=[[0,0.5],[1,0.5]];portConstraint=eastwest;movable=1;resizable=1;rotatable=1;deletable=1;editable=1;connectable=1;fontFamily=Georgia;swimlaneFillColor=none;strokeColor=#CCCCCC;" parent="x_jHGiyt7hKOIwZNZF2D-29" vertex="1">
          <mxGeometry y="70" width="250" height="35" as="geometry" />
        </mxCell>
        <mxCell id="x_jHGiyt7hKOIwZNZF2D-60" style="shape=partialRectangle;html=1;whiteSpace=wrap;connectable=1;top=0;left=0;bottom=0;right=0;overflow=hidden;movable=1;resizable=1;rotatable=1;deletable=1;editable=1;fontFamily=Georgia;swimlaneFillColor=none;fillColor=#f8cecc;strokeColor=#b85450;" parent="x_jHGiyt7hKOIwZNZF2D-34" vertex="1">
          <mxGeometry width="35" height="35" as="geometry">
            <mxRectangle width="35" height="35" as="alternateBounds" />
          </mxGeometry>
        </mxCell>
        <mxCell id="x_jHGiyt7hKOIwZNZF2D-67" style="shape=partialRectangle;html=1;whiteSpace=wrap;connectable=1;top=0;left=0;bottom=0;right=0;overflow=hidden;movable=1;resizable=1;rotatable=1;deletable=1;editable=1;fontFamily=Georgia;swimlaneFillColor=none;fillColor=#f8cecc;strokeColor=#b85450;" parent="x_jHGiyt7hKOIwZNZF2D-34" vertex="1">
          <mxGeometry x="35" width="37" height="35" as="geometry">
            <mxRectangle width="37" height="35" as="alternateBounds" />
          </mxGeometry>
        </mxCell>
        <mxCell id="x_jHGiyt7hKOIwZNZF2D-74" style="shape=partialRectangle;html=1;whiteSpace=wrap;connectable=1;top=0;left=0;bottom=0;right=0;overflow=hidden;movable=1;resizable=1;rotatable=1;deletable=1;editable=1;fontFamily=Georgia;swimlaneFillColor=none;fillColor=#f8cecc;strokeColor=#b85450;" parent="x_jHGiyt7hKOIwZNZF2D-34" vertex="1">
          <mxGeometry x="72" width="35" height="35" as="geometry">
            <mxRectangle width="35" height="35" as="alternateBounds" />
          </mxGeometry>
        </mxCell>
        <mxCell id="x_jHGiyt7hKOIwZNZF2D-35" value="" style="shape=partialRectangle;html=1;whiteSpace=wrap;connectable=1;top=0;left=0;bottom=0;right=0;overflow=hidden;movable=1;resizable=1;rotatable=1;deletable=1;editable=1;fontFamily=Georgia;swimlaneFillColor=none;" parent="x_jHGiyt7hKOIwZNZF2D-34" vertex="1">
          <mxGeometry x="107" width="35" height="35" as="geometry">
            <mxRectangle width="35" height="35" as="alternateBounds" />
          </mxGeometry>
        </mxCell>
        <mxCell id="x_jHGiyt7hKOIwZNZF2D-36" value="" style="shape=partialRectangle;html=1;whiteSpace=wrap;connectable=1;top=0;left=0;bottom=0;right=0;overflow=hidden;movable=1;resizable=1;rotatable=1;deletable=1;editable=1;fontFamily=Georgia;swimlaneFillColor=none;" parent="x_jHGiyt7hKOIwZNZF2D-34" vertex="1">
          <mxGeometry x="142" width="36" height="35" as="geometry">
            <mxRectangle width="36" height="35" as="alternateBounds" />
          </mxGeometry>
        </mxCell>
        <mxCell id="x_jHGiyt7hKOIwZNZF2D-81" style="shape=partialRectangle;html=1;whiteSpace=wrap;connectable=1;top=0;left=0;bottom=0;right=0;overflow=hidden;movable=1;resizable=1;rotatable=1;deletable=1;editable=1;fontFamily=Georgia;swimlaneFillColor=none;" parent="x_jHGiyt7hKOIwZNZF2D-34" vertex="1">
          <mxGeometry x="178" width="37" height="35" as="geometry">
            <mxRectangle width="37" height="35" as="alternateBounds" />
          </mxGeometry>
        </mxCell>
        <mxCell id="x_jHGiyt7hKOIwZNZF2D-37" value="" style="shape=partialRectangle;html=1;whiteSpace=wrap;connectable=1;top=0;left=0;bottom=0;right=0;overflow=hidden;movable=1;resizable=1;rotatable=1;deletable=1;editable=1;fontFamily=Georgia;swimlaneFillColor=none;" parent="x_jHGiyt7hKOIwZNZF2D-34" vertex="1">
          <mxGeometry x="215" width="35" height="35" as="geometry">
            <mxRectangle width="35" height="35" as="alternateBounds" />
          </mxGeometry>
        </mxCell>
        <mxCell id="x_jHGiyt7hKOIwZNZF2D-42" style="shape=tableRow;horizontal=0;startSize=0;swimlaneHead=0;swimlaneBody=0;top=0;left=0;bottom=0;right=0;collapsible=0;dropTarget=0;fillColor=none;points=[[0,0.5],[1,0.5]];portConstraint=eastwest;movable=1;resizable=1;rotatable=1;deletable=1;editable=1;connectable=1;fontFamily=Georgia;swimlaneFillColor=none;strokeColor=#CCCCCC;" parent="x_jHGiyt7hKOIwZNZF2D-29" vertex="1">
          <mxGeometry y="105" width="250" height="37" as="geometry" />
        </mxCell>
        <mxCell id="x_jHGiyt7hKOIwZNZF2D-61" style="shape=partialRectangle;html=1;whiteSpace=wrap;connectable=1;top=0;left=0;bottom=0;right=0;overflow=hidden;movable=1;resizable=1;rotatable=1;deletable=1;editable=1;fontFamily=Georgia;swimlaneFillColor=none;" parent="x_jHGiyt7hKOIwZNZF2D-42" vertex="1">
          <mxGeometry width="35" height="37" as="geometry">
            <mxRectangle width="35" height="37" as="alternateBounds" />
          </mxGeometry>
        </mxCell>
        <mxCell id="x_jHGiyt7hKOIwZNZF2D-68" style="shape=partialRectangle;html=1;whiteSpace=wrap;connectable=1;top=0;left=0;bottom=0;right=0;overflow=hidden;movable=1;resizable=1;rotatable=1;deletable=1;editable=1;fontFamily=Georgia;swimlaneFillColor=none;" parent="x_jHGiyt7hKOIwZNZF2D-42" vertex="1">
          <mxGeometry x="35" width="37" height="37" as="geometry">
            <mxRectangle width="37" height="37" as="alternateBounds" />
          </mxGeometry>
        </mxCell>
        <mxCell id="x_jHGiyt7hKOIwZNZF2D-75" style="shape=partialRectangle;html=1;whiteSpace=wrap;connectable=1;top=0;left=0;bottom=0;right=0;overflow=hidden;movable=1;resizable=1;rotatable=1;deletable=1;editable=1;fontFamily=Georgia;swimlaneFillColor=none;" parent="x_jHGiyt7hKOIwZNZF2D-42" vertex="1">
          <mxGeometry x="72" width="35" height="37" as="geometry">
            <mxRectangle width="35" height="37" as="alternateBounds" />
          </mxGeometry>
        </mxCell>
        <mxCell id="x_jHGiyt7hKOIwZNZF2D-43" style="shape=partialRectangle;html=1;whiteSpace=wrap;connectable=1;top=0;left=0;bottom=0;right=0;overflow=hidden;movable=1;resizable=1;rotatable=1;deletable=1;editable=1;fontFamily=Georgia;swimlaneFillColor=none;" parent="x_jHGiyt7hKOIwZNZF2D-42" vertex="1">
          <mxGeometry x="107" width="35" height="37" as="geometry">
            <mxRectangle width="35" height="37" as="alternateBounds" />
          </mxGeometry>
        </mxCell>
        <mxCell id="x_jHGiyt7hKOIwZNZF2D-44" style="shape=partialRectangle;html=1;whiteSpace=wrap;connectable=1;top=0;left=0;bottom=0;right=0;overflow=hidden;movable=1;resizable=1;rotatable=1;deletable=1;editable=1;fontFamily=Georgia;swimlaneFillColor=none;" parent="x_jHGiyt7hKOIwZNZF2D-42" vertex="1">
          <mxGeometry x="142" width="36" height="37" as="geometry">
            <mxRectangle width="36" height="37" as="alternateBounds" />
          </mxGeometry>
        </mxCell>
        <mxCell id="x_jHGiyt7hKOIwZNZF2D-82" style="shape=partialRectangle;html=1;whiteSpace=wrap;connectable=1;top=0;left=0;bottom=0;right=0;overflow=hidden;pointerEvents=1;movable=1;resizable=1;rotatable=1;deletable=1;editable=1;fontFamily=Georgia;swimlaneFillColor=none;" parent="x_jHGiyt7hKOIwZNZF2D-42" vertex="1">
          <mxGeometry x="178" width="37" height="37" as="geometry">
            <mxRectangle width="37" height="37" as="alternateBounds" />
          </mxGeometry>
        </mxCell>
        <mxCell id="x_jHGiyt7hKOIwZNZF2D-45" style="shape=partialRectangle;html=1;whiteSpace=wrap;connectable=1;top=0;left=0;bottom=0;right=0;overflow=hidden;pointerEvents=1;movable=1;resizable=1;rotatable=1;deletable=1;editable=1;fontFamily=Georgia;swimlaneFillColor=none;" parent="x_jHGiyt7hKOIwZNZF2D-42" vertex="1">
          <mxGeometry x="215" width="35" height="37" as="geometry">
            <mxRectangle width="35" height="37" as="alternateBounds" />
          </mxGeometry>
        </mxCell>
        <mxCell id="x_jHGiyt7hKOIwZNZF2D-46" style="shape=tableRow;horizontal=0;startSize=0;swimlaneHead=0;swimlaneBody=0;top=0;left=0;bottom=0;right=0;collapsible=0;dropTarget=0;fillColor=none;points=[[0,0.5],[1,0.5]];portConstraint=eastwest;movable=1;resizable=1;rotatable=1;deletable=1;editable=1;connectable=1;fontFamily=Georgia;swimlaneFillColor=none;strokeColor=#CCCCCC;" parent="x_jHGiyt7hKOIwZNZF2D-29" vertex="1">
          <mxGeometry y="142" width="250" height="36" as="geometry" />
        </mxCell>
        <mxCell id="x_jHGiyt7hKOIwZNZF2D-62" style="shape=partialRectangle;html=1;whiteSpace=wrap;connectable=1;top=0;left=0;bottom=0;right=0;overflow=hidden;movable=1;resizable=1;rotatable=1;deletable=1;editable=1;fontFamily=Georgia;swimlaneFillColor=none;" parent="x_jHGiyt7hKOIwZNZF2D-46" vertex="1">
          <mxGeometry width="35" height="36" as="geometry">
            <mxRectangle width="35" height="36" as="alternateBounds" />
          </mxGeometry>
        </mxCell>
        <mxCell id="x_jHGiyt7hKOIwZNZF2D-69" style="shape=partialRectangle;html=1;whiteSpace=wrap;connectable=1;top=0;left=0;bottom=0;right=0;overflow=hidden;movable=1;resizable=1;rotatable=1;deletable=1;editable=1;fontFamily=Georgia;swimlaneFillColor=none;" parent="x_jHGiyt7hKOIwZNZF2D-46" vertex="1">
          <mxGeometry x="35" width="37" height="36" as="geometry">
            <mxRectangle width="37" height="36" as="alternateBounds" />
          </mxGeometry>
        </mxCell>
        <mxCell id="x_jHGiyt7hKOIwZNZF2D-76" style="shape=partialRectangle;html=1;whiteSpace=wrap;connectable=1;top=0;left=0;bottom=0;right=0;overflow=hidden;movable=1;resizable=1;rotatable=1;deletable=1;editable=1;fontFamily=Georgia;swimlaneFillColor=none;" parent="x_jHGiyt7hKOIwZNZF2D-46" vertex="1">
          <mxGeometry x="72" width="35" height="36" as="geometry">
            <mxRectangle width="35" height="36" as="alternateBounds" />
          </mxGeometry>
        </mxCell>
        <mxCell id="x_jHGiyt7hKOIwZNZF2D-47" style="shape=partialRectangle;html=1;whiteSpace=wrap;connectable=1;top=0;left=0;bottom=0;right=0;overflow=hidden;movable=1;resizable=1;rotatable=1;deletable=1;editable=1;fontFamily=Georgia;swimlaneFillColor=none;" parent="x_jHGiyt7hKOIwZNZF2D-46" vertex="1">
          <mxGeometry x="107" width="35" height="36" as="geometry">
            <mxRectangle width="35" height="36" as="alternateBounds" />
          </mxGeometry>
        </mxCell>
        <mxCell id="x_jHGiyt7hKOIwZNZF2D-48" style="shape=partialRectangle;html=1;whiteSpace=wrap;connectable=1;top=0;left=0;bottom=0;right=0;overflow=hidden;movable=1;resizable=1;rotatable=1;deletable=1;editable=1;fontFamily=Georgia;swimlaneFillColor=none;fillColor=#f8cecc;strokeColor=#b85450;" parent="x_jHGiyt7hKOIwZNZF2D-46" vertex="1">
          <mxGeometry x="142" width="36" height="36" as="geometry">
            <mxRectangle width="36" height="36" as="alternateBounds" />
          </mxGeometry>
        </mxCell>
        <mxCell id="x_jHGiyt7hKOIwZNZF2D-83" style="shape=partialRectangle;html=1;whiteSpace=wrap;connectable=1;top=0;left=0;bottom=0;right=0;overflow=hidden;pointerEvents=1;movable=1;resizable=1;rotatable=1;deletable=1;editable=1;fontFamily=Georgia;swimlaneFillColor=none;fillColor=#f8cecc;strokeColor=#b85450;" parent="x_jHGiyt7hKOIwZNZF2D-46" vertex="1">
          <mxGeometry x="178" width="37" height="36" as="geometry">
            <mxRectangle width="37" height="36" as="alternateBounds" />
          </mxGeometry>
        </mxCell>
        <mxCell id="x_jHGiyt7hKOIwZNZF2D-49" style="shape=partialRectangle;html=1;whiteSpace=wrap;connectable=1;top=0;left=0;bottom=0;right=0;overflow=hidden;pointerEvents=1;movable=1;resizable=1;rotatable=1;deletable=1;editable=1;fontFamily=Georgia;swimlaneFillColor=none;fillColor=#f8cecc;strokeColor=#b85450;" parent="x_jHGiyt7hKOIwZNZF2D-46" vertex="1">
          <mxGeometry x="215" width="35" height="36" as="geometry">
            <mxRectangle width="35" height="36" as="alternateBounds" />
          </mxGeometry>
        </mxCell>
        <mxCell id="x_jHGiyt7hKOIwZNZF2D-38" value="" style="shape=tableRow;horizontal=0;startSize=0;swimlaneHead=0;swimlaneBody=0;top=0;left=0;bottom=0;right=0;collapsible=0;dropTarget=0;fillColor=none;points=[[0,0.5],[1,0.5]];portConstraint=eastwest;movable=1;resizable=1;rotatable=1;deletable=1;editable=1;connectable=1;fontFamily=Georgia;swimlaneFillColor=none;strokeColor=#CCCCCC;" parent="x_jHGiyt7hKOIwZNZF2D-29" vertex="1">
          <mxGeometry y="178" width="250" height="36" as="geometry" />
        </mxCell>
        <mxCell id="x_jHGiyt7hKOIwZNZF2D-63" style="shape=partialRectangle;html=1;whiteSpace=wrap;connectable=1;top=0;left=0;bottom=0;right=0;overflow=hidden;movable=1;resizable=1;rotatable=1;deletable=1;editable=1;fontFamily=Georgia;swimlaneFillColor=none;" parent="x_jHGiyt7hKOIwZNZF2D-38" vertex="1">
          <mxGeometry width="35" height="36" as="geometry">
            <mxRectangle width="35" height="36" as="alternateBounds" />
          </mxGeometry>
        </mxCell>
        <mxCell id="x_jHGiyt7hKOIwZNZF2D-70" style="shape=partialRectangle;html=1;whiteSpace=wrap;connectable=1;top=0;left=0;bottom=0;right=0;overflow=hidden;movable=1;resizable=1;rotatable=1;deletable=1;editable=1;fontFamily=Georgia;swimlaneFillColor=none;" parent="x_jHGiyt7hKOIwZNZF2D-38" vertex="1">
          <mxGeometry x="35" width="37" height="36" as="geometry">
            <mxRectangle width="37" height="36" as="alternateBounds" />
          </mxGeometry>
        </mxCell>
        <mxCell id="x_jHGiyt7hKOIwZNZF2D-77" style="shape=partialRectangle;html=1;whiteSpace=wrap;connectable=1;top=0;left=0;bottom=0;right=0;overflow=hidden;movable=1;resizable=1;rotatable=1;deletable=1;editable=1;fontFamily=Georgia;swimlaneFillColor=none;" parent="x_jHGiyt7hKOIwZNZF2D-38" vertex="1">
          <mxGeometry x="72" width="35" height="36" as="geometry">
            <mxRectangle width="35" height="36" as="alternateBounds" />
          </mxGeometry>
        </mxCell>
        <mxCell id="x_jHGiyt7hKOIwZNZF2D-39" value="" style="shape=partialRectangle;html=1;whiteSpace=wrap;connectable=1;top=0;left=0;bottom=0;right=0;overflow=hidden;movable=1;resizable=1;rotatable=1;deletable=1;editable=1;fontFamily=Georgia;swimlaneFillColor=none;" parent="x_jHGiyt7hKOIwZNZF2D-38" vertex="1">
          <mxGeometry x="107" width="35" height="36" as="geometry">
            <mxRectangle width="35" height="36" as="alternateBounds" />
          </mxGeometry>
        </mxCell>
        <mxCell id="x_jHGiyt7hKOIwZNZF2D-40" value="" style="shape=partialRectangle;html=1;whiteSpace=wrap;connectable=1;top=0;left=0;bottom=0;right=0;overflow=hidden;movable=1;resizable=1;rotatable=1;deletable=1;editable=1;fontFamily=Georgia;swimlaneFillColor=none;fillColor=#f8cecc;strokeColor=#b85450;" parent="x_jHGiyt7hKOIwZNZF2D-38" vertex="1">
          <mxGeometry x="142" width="36" height="36" as="geometry">
            <mxRectangle width="36" height="36" as="alternateBounds" />
          </mxGeometry>
        </mxCell>
        <mxCell id="x_jHGiyt7hKOIwZNZF2D-84" style="shape=partialRectangle;html=1;whiteSpace=wrap;connectable=1;top=0;left=0;bottom=0;right=0;overflow=hidden;pointerEvents=1;movable=1;resizable=1;rotatable=1;deletable=1;editable=1;fontFamily=Georgia;swimlaneFillColor=none;fillColor=#f8cecc;strokeColor=#b85450;" parent="x_jHGiyt7hKOIwZNZF2D-38" vertex="1">
          <mxGeometry x="178" width="37" height="36" as="geometry">
            <mxRectangle width="37" height="36" as="alternateBounds" />
          </mxGeometry>
        </mxCell>
        <mxCell id="x_jHGiyt7hKOIwZNZF2D-41" value="" style="shape=partialRectangle;html=1;whiteSpace=wrap;connectable=1;top=0;left=0;bottom=0;right=0;overflow=hidden;pointerEvents=1;movable=1;resizable=1;rotatable=1;deletable=1;editable=1;fontFamily=Georgia;swimlaneFillColor=none;fillColor=#f8cecc;strokeColor=#b85450;" parent="x_jHGiyt7hKOIwZNZF2D-38" vertex="1">
          <mxGeometry x="215" width="35" height="36" as="geometry">
            <mxRectangle width="35" height="36" as="alternateBounds" />
          </mxGeometry>
        </mxCell>
        <mxCell id="x_jHGiyt7hKOIwZNZF2D-50" style="shape=tableRow;horizontal=0;startSize=0;swimlaneHead=0;swimlaneBody=0;top=0;left=0;bottom=0;right=0;collapsible=0;dropTarget=0;fillColor=none;points=[[0,0.5],[1,0.5]];portConstraint=eastwest;movable=1;resizable=1;rotatable=1;deletable=1;editable=1;connectable=1;fontFamily=Georgia;swimlaneFillColor=none;strokeColor=#CCCCCC;" parent="x_jHGiyt7hKOIwZNZF2D-29" vertex="1">
          <mxGeometry y="214" width="250" height="35" as="geometry" />
        </mxCell>
        <mxCell id="x_jHGiyt7hKOIwZNZF2D-64" style="shape=partialRectangle;html=1;whiteSpace=wrap;connectable=1;top=0;left=0;bottom=0;right=0;overflow=hidden;movable=1;resizable=1;rotatable=1;deletable=1;editable=1;fontFamily=Georgia;swimlaneFillColor=none;" parent="x_jHGiyt7hKOIwZNZF2D-50" vertex="1">
          <mxGeometry width="35" height="35" as="geometry">
            <mxRectangle width="35" height="35" as="alternateBounds" />
          </mxGeometry>
        </mxCell>
        <mxCell id="x_jHGiyt7hKOIwZNZF2D-71" style="shape=partialRectangle;html=1;whiteSpace=wrap;connectable=1;top=0;left=0;bottom=0;right=0;overflow=hidden;movable=1;resizable=1;rotatable=1;deletable=1;editable=1;fontFamily=Georgia;swimlaneFillColor=none;" parent="x_jHGiyt7hKOIwZNZF2D-50" vertex="1">
          <mxGeometry x="35" width="37" height="35" as="geometry">
            <mxRectangle width="37" height="35" as="alternateBounds" />
          </mxGeometry>
        </mxCell>
        <mxCell id="x_jHGiyt7hKOIwZNZF2D-78" style="shape=partialRectangle;html=1;whiteSpace=wrap;connectable=1;top=0;left=0;bottom=0;right=0;overflow=hidden;movable=1;resizable=1;rotatable=1;deletable=1;editable=1;fontFamily=Georgia;swimlaneFillColor=none;" parent="x_jHGiyt7hKOIwZNZF2D-50" vertex="1">
          <mxGeometry x="72" width="35" height="35" as="geometry">
            <mxRectangle width="35" height="35" as="alternateBounds" />
          </mxGeometry>
        </mxCell>
        <mxCell id="x_jHGiyt7hKOIwZNZF2D-51" style="shape=partialRectangle;html=1;whiteSpace=wrap;connectable=1;top=0;left=0;bottom=0;right=0;overflow=hidden;movable=1;resizable=1;rotatable=1;deletable=1;editable=1;fontFamily=Georgia;swimlaneFillColor=none;" parent="x_jHGiyt7hKOIwZNZF2D-50" vertex="1">
          <mxGeometry x="107" width="35" height="35" as="geometry">
            <mxRectangle width="35" height="35" as="alternateBounds" />
          </mxGeometry>
        </mxCell>
        <mxCell id="x_jHGiyt7hKOIwZNZF2D-52" style="shape=partialRectangle;html=1;whiteSpace=wrap;connectable=1;top=0;left=0;bottom=0;right=0;overflow=hidden;movable=1;resizable=1;rotatable=1;deletable=1;editable=1;fontFamily=Georgia;swimlaneFillColor=none;fillColor=#f8cecc;strokeColor=#b85450;" parent="x_jHGiyt7hKOIwZNZF2D-50" vertex="1">
          <mxGeometry x="142" width="36" height="35" as="geometry">
            <mxRectangle width="36" height="35" as="alternateBounds" />
          </mxGeometry>
        </mxCell>
        <mxCell id="x_jHGiyt7hKOIwZNZF2D-85" style="shape=partialRectangle;html=1;whiteSpace=wrap;connectable=1;top=0;left=0;bottom=0;right=0;overflow=hidden;pointerEvents=1;movable=1;resizable=1;rotatable=1;deletable=1;editable=1;fontFamily=Georgia;swimlaneFillColor=none;fillColor=#f8cecc;strokeColor=#b85450;" parent="x_jHGiyt7hKOIwZNZF2D-50" vertex="1">
          <mxGeometry x="178" width="37" height="35" as="geometry">
            <mxRectangle width="37" height="35" as="alternateBounds" />
          </mxGeometry>
        </mxCell>
        <mxCell id="x_jHGiyt7hKOIwZNZF2D-53" style="shape=partialRectangle;html=1;whiteSpace=wrap;connectable=1;top=0;left=0;bottom=0;right=0;overflow=hidden;pointerEvents=1;movable=1;resizable=1;rotatable=1;deletable=1;editable=1;fontFamily=Georgia;swimlaneFillColor=none;fillColor=#f8cecc;strokeColor=#b85450;" parent="x_jHGiyt7hKOIwZNZF2D-50" vertex="1">
          <mxGeometry x="215" width="35" height="35" as="geometry">
            <mxRectangle width="35" height="35" as="alternateBounds" />
          </mxGeometry>
        </mxCell>
        <mxCell id="x_jHGiyt7hKOIwZNZF2D-86" value="&lt;span style=&quot;font-weight: 400;&quot;&gt;&quot;&lt;/span&gt;STUDY&lt;br&gt;&lt;span style=&quot;font-weight: normal;&quot;&gt;&amp;nbsp; &amp;nbsp;music&quot;&lt;/span&gt;" style="text;strokeColor=none;fillColor=none;html=1;fontSize=24;fontStyle=1;verticalAlign=middle;align=center;fontFamily=Georgia;" parent="1" vertex="1">
          <mxGeometry x="270" y="470" width="110" height="50" as="geometry" />
        </mxCell>
        <mxCell id="x_jHGiyt7hKOIwZNZF2D-87" value="&lt;span style=&quot;font-weight: 400;&quot;&gt;&quot;study&lt;/span&gt;&lt;br&gt;&lt;span style=&quot;font-weight: normal;&quot;&gt;&amp;nbsp; &amp;nbsp;&lt;/span&gt;MUSIC&lt;span style=&quot;font-weight: normal;&quot;&gt;&quot;&lt;/span&gt;" style="text;strokeColor=none;fillColor=none;html=1;fontSize=24;fontStyle=1;verticalAlign=middle;align=center;fontFamily=Georgia;" parent="1" vertex="1">
          <mxGeometry x="410" y="330" width="110" height="50" as="geometry" />
        </mxCell>
        <mxCell id="x_jHGiyt7hKOIwZNZF2D-98" value="" style="group" parent="1" vertex="1" connectable="0">
          <mxGeometry x="270" y="555" width="250" height="40" as="geometry" />
        </mxCell>
        <mxCell id="x_jHGiyt7hKOIwZNZF2D-93" value="" style="endArrow=classic;startArrow=classic;html=1;rounded=0;fontFamily=Georgia;" parent="x_jHGiyt7hKOIwZNZF2D-98" edge="1">
          <mxGeometry width="50" height="50" relative="1" as="geometry">
            <mxPoint x="48.61111111111111" y="19.58000000000004" as="sourcePoint" />
            <mxPoint x="90.27777777777777" y="19.58000000000004" as="targetPoint" />
            <Array as="points">
              <mxPoint x="72.91666666666666" y="19.58000000000004" />
            </Array>
          </mxGeometry>
        </mxCell>
        <mxCell id="x_jHGiyt7hKOIwZNZF2D-94" value="" style="endArrow=classic;startArrow=classic;html=1;rounded=0;fontFamily=Georgia;" parent="x_jHGiyt7hKOIwZNZF2D-98" edge="1">
          <mxGeometry width="50" height="50" relative="1" as="geometry">
            <mxPoint x="152.77777777777777" y="19.58000000000004" as="sourcePoint" />
            <mxPoint x="194.44444444444443" y="19.58000000000004" as="targetPoint" />
          </mxGeometry>
        </mxCell>
        <mxCell id="x_jHGiyt7hKOIwZNZF2D-95" value="Equal" style="text;html=1;strokeColor=none;fillColor=none;align=center;verticalAlign=middle;whiteSpace=wrap;rounded=0;fontFamily=Georgia;fontStyle=1" parent="x_jHGiyt7hKOIwZNZF2D-98" vertex="1">
          <mxGeometry x="102.08333333333333" y="5" width="41.666666666666664" height="30" as="geometry" />
        </mxCell>
        <mxCell id="x_jHGiyt7hKOIwZNZF2D-96" value="STUDY" style="text;strokeColor=none;fillColor=none;html=1;fontSize=12;fontStyle=1;verticalAlign=middle;align=center;fontFamily=Georgia;" parent="x_jHGiyt7hKOIwZNZF2D-98" vertex="1">
          <mxGeometry width="48.61111111111111" height="40" as="geometry" />
        </mxCell>
        <mxCell id="x_jHGiyt7hKOIwZNZF2D-97" value="MUSIC" style="text;strokeColor=none;fillColor=none;html=1;fontSize=12;fontStyle=1;verticalAlign=middle;align=center;fontFamily=Georgia;" parent="x_jHGiyt7hKOIwZNZF2D-98" vertex="1">
          <mxGeometry x="194.44444444444443" y="2.5" width="55.55555555555556" height="35" as="geometry" />
        </mxCell>
        <mxCell id="x_jHGiyt7hKOIwZNZF2D-106" value="" style="group;rotation=-90;" parent="1" vertex="1" connectable="0">
          <mxGeometry x="110" y="404.5" width="250" height="40" as="geometry" />
        </mxCell>
        <mxCell id="x_jHGiyt7hKOIwZNZF2D-107" value="" style="endArrow=classic;startArrow=classic;html=1;rounded=0;fontFamily=Georgia;" parent="x_jHGiyt7hKOIwZNZF2D-106" edge="1">
          <mxGeometry width="50" height="50" relative="1" as="geometry">
            <mxPoint x="125" y="96" as="sourcePoint" />
            <mxPoint x="125" y="55" as="targetPoint" />
            <Array as="points">
              <mxPoint x="125" y="72" />
            </Array>
          </mxGeometry>
        </mxCell>
        <mxCell id="x_jHGiyt7hKOIwZNZF2D-108" value="" style="endArrow=classic;startArrow=classic;html=1;rounded=0;fontFamily=Georgia;" parent="x_jHGiyt7hKOIwZNZF2D-106" edge="1">
          <mxGeometry width="50" height="50" relative="1" as="geometry">
            <mxPoint x="125" y="-8" as="sourcePoint" />
            <mxPoint x="125" y="-49" as="targetPoint" />
          </mxGeometry>
        </mxCell>
        <mxCell id="x_jHGiyt7hKOIwZNZF2D-109" value="Equal" style="text;html=1;strokeColor=none;fillColor=none;align=center;verticalAlign=middle;whiteSpace=wrap;rounded=0;fontFamily=Georgia;fontStyle=1;rotation=-90;" parent="x_jHGiyt7hKOIwZNZF2D-106" vertex="1">
          <mxGeometry x="104" y="7" width="41.666666666666664" height="30" as="geometry" />
        </mxCell>
        <mxCell id="x_jHGiyt7hKOIwZNZF2D-110" value="STUDY" style="text;strokeColor=none;fillColor=none;html=1;fontSize=12;fontStyle=1;verticalAlign=middle;align=center;fontFamily=Georgia;rotation=-90;" parent="x_jHGiyt7hKOIwZNZF2D-106" vertex="1">
          <mxGeometry x="101" y="101" width="48.61111111111111" height="40" as="geometry" />
        </mxCell>
        <mxCell id="x_jHGiyt7hKOIwZNZF2D-111" value="MUSIC" style="text;strokeColor=none;fillColor=none;html=1;fontSize=12;fontStyle=1;verticalAlign=middle;align=center;fontFamily=Georgia;rotation=-90;" parent="x_jHGiyt7hKOIwZNZF2D-106" vertex="1">
          <mxGeometry x="97" y="-95" width="55.55555555555556" height="35" as="geometry" />
        </mxCell>
        <mxCell id="x_jHGiyt7hKOIwZNZF2D-112" value="Duration" style="text;strokeColor=none;fillColor=none;html=1;fontSize=24;fontStyle=1;verticalAlign=middle;align=center;fontFamily=Times New Roman;" parent="1" vertex="1">
          <mxGeometry x="338" y="591" width="100" height="40" as="geometry" />
        </mxCell>
        <mxCell id="x_jHGiyt7hKOIwZNZF2D-113" value="F0" style="text;strokeColor=none;fillColor=none;html=1;fontSize=24;fontStyle=1;verticalAlign=middle;align=center;fontFamily=Times New Roman;rotation=-90;" parent="1" vertex="1">
          <mxGeometry x="143" y="411" width="100" height="40" as="geometry" />
        </mxCell>
        <mxCell id="x_jHGiyt7hKOIwZNZF2D-114" value="Condition:enhancement" style="text;strokeColor=none;fillColor=none;html=1;fontSize=24;fontStyle=1;verticalAlign=middle;align=center;fontFamily=Times New Roman;" parent="1" vertex="1">
          <mxGeometry x="338" y="189" width="100" height="40" as="geometry" />
        </mxCell>
        <mxCell id="x_jHGiyt7hKOIwZNZF2D-115" value="When Duration and F0 information is available (partial) and also conherence to canonical form.&amp;nbsp;" style="text;html=1;strokeColor=none;fillColor=none;align=center;verticalAlign=middle;whiteSpace=wrap;rounded=0;fontFamily=Times New Roman;fontSize=12;" parent="1" vertex="1">
          <mxGeometry x="250" y="655" width="290" height="30" as="geometry" />
        </mxCell>
        <mxCell id="x_jHGiyt7hKOIwZNZF2D-118" value="" style="group" parent="1" vertex="1" connectable="0">
          <mxGeometry x="537" y="275" width="131" height="304" as="geometry" />
        </mxCell>
        <mxCell id="x_jHGiyt7hKOIwZNZF2D-116" value="&lt;span style=&quot;font-weight: normal; font-size: 20px;&quot;&gt;spectral tilt modification:&lt;br style=&quot;font-size: 20px;&quot;&gt;&lt;/span&gt;&lt;ul style=&quot;font-size: 20px;&quot;&gt;&lt;li style=&quot;font-size: 20px;&quot;&gt;&lt;span style=&quot;font-weight: normal; font-size: 20px;&quot;&gt;study&amp;nbsp; &amp;nbsp; &amp;nbsp; &amp;nbsp; more steeper&lt;/span&gt;&lt;/li&gt;&lt;li style=&quot;font-size: 20px;&quot;&gt;&lt;span style=&quot;font-weight: normal; font-size: 20px;&quot;&gt;MUSIC&amp;nbsp; &amp;nbsp; more flatter&lt;/span&gt;&lt;/li&gt;&lt;/ul&gt;&lt;div style=&quot;text-align: justify; font-size: 20px;&quot;&gt;&lt;/div&gt;" style="text;strokeColor=none;fillColor=none;html=1;fontSize=20;fontStyle=1;verticalAlign=middle;align=left;fontFamily=Georgia;" parent="x_jHGiyt7hKOIwZNZF2D-118" vertex="1">
          <mxGeometry x="5" width="126" height="140" as="geometry" />
        </mxCell>
        <mxCell id="x_jHGiyt7hKOIwZNZF2D-117" value="&lt;span style=&quot;font-size: 20px;&quot;&gt;&lt;br style=&quot;font-size: 20px;&quot;&gt;&lt;/span&gt;&lt;ul style=&quot;font-size: 20px;&quot;&gt;&lt;li style=&quot;font-size: 20px;&quot;&gt;&lt;span style=&quot;font-size: 20px;&quot;&gt;music&amp;nbsp; &amp;nbsp; &amp;nbsp; &amp;nbsp; more steeper&lt;/span&gt;&lt;/li&gt;&lt;li style=&quot;font-size: 20px;&quot;&gt;&lt;span style=&quot;font-size: 20px;&quot;&gt;STUDY&amp;nbsp; &amp;nbsp; &amp;nbsp;more flatter&lt;/span&gt;&lt;/li&gt;&lt;/ul&gt;&lt;div style=&quot;text-align: justify; font-size: 20px;&quot;&gt;&lt;/div&gt;" style="text;strokeColor=none;fillColor=none;html=1;fontSize=20;fontStyle=0;verticalAlign=middle;align=left;fontFamily=Georgia;" parent="x_jHGiyt7hKOIwZNZF2D-118" vertex="1">
          <mxGeometry y="164" width="126" height="140" as="geometry" />
        </mxCell>
      </root>
    </mxGraphModel>
  </diagram>
</mxfile>
